<mxfile host="Electron" modified="2023-06-07T09:09:50.981Z" agent="Mozilla/5.0 (Windows NT 10.0; Win64; x64) AppleWebKit/537.36 (KHTML, like Gecko) draw.io/21.2.8 Chrome/112.0.5615.165 Electron/24.2.0 Safari/537.36" etag="XaRjlfPV_RPS3Av99xF2" version="21.2.8" type="device">
  <diagram name="Page-1" id="pBGn73B9azQZmzt-JO6t">
    <mxGraphModel dx="1418" dy="828" grid="1" gridSize="10" guides="1" tooltips="1" connect="1" arrows="1" fold="1" page="1" pageScale="1" pageWidth="1920" pageHeight="1920" math="0" shadow="0">
      <root>
        <mxCell id="0" />
        <mxCell id="1" parent="0" />
        <mxCell id="I47rbQ5ZWNt1KXBEIff3-6" style="edgeStyle=orthogonalEdgeStyle;rounded=0;orthogonalLoop=1;jettySize=auto;html=1;entryX=0;entryY=0.5;entryDx=0;entryDy=0;" edge="1" parent="1" source="I47rbQ5ZWNt1KXBEIff3-1" target="I47rbQ5ZWNt1KXBEIff3-5">
          <mxGeometry relative="1" as="geometry" />
        </mxCell>
        <mxCell id="I47rbQ5ZWNt1KXBEIff3-1" value="Encode&lt;br&gt;(Tokenize)" style="ellipse;whiteSpace=wrap;html=1;" vertex="1" parent="1">
          <mxGeometry x="360" y="300" width="120" height="120" as="geometry" />
        </mxCell>
        <mxCell id="I47rbQ5ZWNt1KXBEIff3-4" style="edgeStyle=orthogonalEdgeStyle;rounded=0;orthogonalLoop=1;jettySize=auto;html=1;entryX=0;entryY=0.5;entryDx=0;entryDy=0;" edge="1" parent="1" source="I47rbQ5ZWNt1KXBEIff3-2" target="I47rbQ5ZWNt1KXBEIff3-1">
          <mxGeometry relative="1" as="geometry" />
        </mxCell>
        <mxCell id="I47rbQ5ZWNt1KXBEIff3-2" value="Unstructured text &lt;br&gt;(tens of TBs of data)" style="text;html=1;strokeColor=none;fillColor=none;align=center;verticalAlign=middle;whiteSpace=wrap;rounded=0;" vertex="1" parent="1">
          <mxGeometry x="160" y="345" width="140" height="30" as="geometry" />
        </mxCell>
        <mxCell id="I47rbQ5ZWNt1KXBEIff3-8" style="edgeStyle=orthogonalEdgeStyle;rounded=0;orthogonalLoop=1;jettySize=auto;html=1;entryX=0;entryY=0.5;entryDx=0;entryDy=0;" edge="1" parent="1" source="I47rbQ5ZWNt1KXBEIff3-5" target="I47rbQ5ZWNt1KXBEIff3-7">
          <mxGeometry relative="1" as="geometry" />
        </mxCell>
        <mxCell id="I47rbQ5ZWNt1KXBEIff3-5" value="" style="rounded=1;whiteSpace=wrap;html=1;" vertex="1" parent="1">
          <mxGeometry x="550" y="160" width="440" height="400" as="geometry" />
        </mxCell>
        <mxCell id="I47rbQ5ZWNt1KXBEIff3-9" style="edgeStyle=orthogonalEdgeStyle;rounded=0;orthogonalLoop=1;jettySize=auto;html=1;" edge="1" parent="1" source="I47rbQ5ZWNt1KXBEIff3-7">
          <mxGeometry relative="1" as="geometry">
            <mxPoint x="1280" y="360" as="targetPoint" />
          </mxGeometry>
        </mxCell>
        <mxCell id="I47rbQ5ZWNt1KXBEIff3-7" value="Decode" style="ellipse;whiteSpace=wrap;html=1;" vertex="1" parent="1">
          <mxGeometry x="1080" y="300" width="120" height="120" as="geometry" />
        </mxCell>
        <mxCell id="I47rbQ5ZWNt1KXBEIff3-21" style="edgeStyle=orthogonalEdgeStyle;rounded=0;orthogonalLoop=1;jettySize=auto;html=1;entryX=0.5;entryY=0;entryDx=0;entryDy=0;" edge="1" parent="1" source="I47rbQ5ZWNt1KXBEIff3-10" target="I47rbQ5ZWNt1KXBEIff3-15">
          <mxGeometry relative="1" as="geometry" />
        </mxCell>
        <mxCell id="I47rbQ5ZWNt1KXBEIff3-10" value="Unsupervised pre-training" style="ellipse;whiteSpace=wrap;html=1;aspect=fixed;" vertex="1" parent="1">
          <mxGeometry x="730" y="210" width="100" height="100" as="geometry" />
        </mxCell>
        <mxCell id="I47rbQ5ZWNt1KXBEIff3-14" value="" style="endArrow=classic;html=1;rounded=0;exitX=0;exitY=0.5;exitDx=0;exitDy=0;entryX=0;entryY=0.5;entryDx=0;entryDy=0;endFill=1;" edge="1" parent="1" source="I47rbQ5ZWNt1KXBEIff3-5" target="I47rbQ5ZWNt1KXBEIff3-10">
          <mxGeometry width="50" height="50" relative="1" as="geometry">
            <mxPoint x="620" y="400" as="sourcePoint" />
            <mxPoint x="670" y="350" as="targetPoint" />
          </mxGeometry>
        </mxCell>
        <mxCell id="I47rbQ5ZWNt1KXBEIff3-15" value="Instruct Finetuning" style="ellipse;whiteSpace=wrap;html=1;aspect=fixed;" vertex="1" parent="1">
          <mxGeometry x="730" y="410" width="100" height="100" as="geometry" />
        </mxCell>
        <mxCell id="I47rbQ5ZWNt1KXBEIff3-16" value="" style="endArrow=classic;html=1;rounded=0;exitX=1;exitY=0.5;exitDx=0;exitDy=0;entryX=1;entryY=0.5;entryDx=0;entryDy=0;" edge="1" parent="1" source="I47rbQ5ZWNt1KXBEIff3-15" target="I47rbQ5ZWNt1KXBEIff3-5">
          <mxGeometry width="50" height="50" relative="1" as="geometry">
            <mxPoint x="890" y="450" as="sourcePoint" />
            <mxPoint x="940" y="400" as="targetPoint" />
          </mxGeometry>
        </mxCell>
        <mxCell id="I47rbQ5ZWNt1KXBEIff3-24" style="edgeStyle=orthogonalEdgeStyle;rounded=0;orthogonalLoop=1;jettySize=auto;html=1;entryX=0.5;entryY=1;entryDx=0;entryDy=0;" edge="1" parent="1" source="I47rbQ5ZWNt1KXBEIff3-17" target="I47rbQ5ZWNt1KXBEIff3-15">
          <mxGeometry relative="1" as="geometry">
            <Array as="points">
              <mxPoint x="1320" y="610" />
              <mxPoint x="780" y="610" />
            </Array>
          </mxGeometry>
        </mxCell>
        <mxCell id="I47rbQ5ZWNt1KXBEIff3-17" value="Response" style="text;html=1;strokeColor=none;fillColor=none;align=center;verticalAlign=middle;whiteSpace=wrap;rounded=0;" vertex="1" parent="1">
          <mxGeometry x="1290" y="345" width="60" height="30" as="geometry" />
        </mxCell>
        <mxCell id="I47rbQ5ZWNt1KXBEIff3-20" style="edgeStyle=orthogonalEdgeStyle;rounded=0;orthogonalLoop=1;jettySize=auto;html=1;entryX=0;entryY=0.5;entryDx=0;entryDy=0;" edge="1" parent="1" source="I47rbQ5ZWNt1KXBEIff3-18" target="I47rbQ5ZWNt1KXBEIff3-19">
          <mxGeometry relative="1" as="geometry" />
        </mxCell>
        <mxCell id="I47rbQ5ZWNt1KXBEIff3-18" value="Question" style="text;html=1;strokeColor=none;fillColor=none;align=center;verticalAlign=middle;whiteSpace=wrap;rounded=0;" vertex="1" parent="1">
          <mxGeometry x="220" y="520" width="60" height="30" as="geometry" />
        </mxCell>
        <mxCell id="I47rbQ5ZWNt1KXBEIff3-22" style="edgeStyle=orthogonalEdgeStyle;rounded=0;orthogonalLoop=1;jettySize=auto;html=1;entryX=0;entryY=0.5;entryDx=0;entryDy=0;" edge="1" parent="1" source="I47rbQ5ZWNt1KXBEIff3-19" target="I47rbQ5ZWNt1KXBEIff3-15">
          <mxGeometry relative="1" as="geometry" />
        </mxCell>
        <mxCell id="I47rbQ5ZWNt1KXBEIff3-19" value="Encode&lt;br&gt;(Tokenize)" style="ellipse;whiteSpace=wrap;html=1;" vertex="1" parent="1">
          <mxGeometry x="360" y="475" width="120" height="120" as="geometry" />
        </mxCell>
        <mxCell id="I47rbQ5ZWNt1KXBEIff3-25" value="Base model" style="text;html=1;strokeColor=none;fillColor=none;align=center;verticalAlign=middle;whiteSpace=wrap;rounded=0;" vertex="1" parent="1">
          <mxGeometry x="790" y="290" width="60" height="30" as="geometry" />
        </mxCell>
        <mxCell id="I47rbQ5ZWNt1KXBEIff3-27" value="Assistant model" style="text;html=1;strokeColor=none;fillColor=none;align=center;verticalAlign=middle;whiteSpace=wrap;rounded=0;" vertex="1" parent="1">
          <mxGeometry x="790" y="490" width="60" height="30" as="geometry" />
        </mxCell>
        <mxCell id="I47rbQ5ZWNt1KXBEIff3-28" value="Instruct finetuning: &lt;br&gt;(a) supervised finetuning (SFT); &lt;br&gt;(b) reward modeling; &lt;br&gt;(c) reinforcement learning from human feedback (RLHF)" style="text;html=1;strokeColor=none;fillColor=none;align=left;verticalAlign=middle;whiteSpace=wrap;rounded=0;" vertex="1" parent="1">
          <mxGeometry x="1010" y="440" width="190" height="130" as="geometry" />
        </mxCell>
      </root>
    </mxGraphModel>
  </diagram>
</mxfile>
